<svg xmlns="http://www.w3.org/2000/svg" width="341.919" height="210.309" viewBox="0 0 341.919 210.309"><g transform="translate(0.02 0)"><path d="M352.989,222.836a70.063,70.063,0,0,1-2.052,16.907q-.691,2.8-1.605,5.475a64.661,64.661,0,0,1-2.589,6.479q-.74,1.6-1.565,3.141a42.256,42.256,0,0,1-3.533,16.979A43.773,43.773,0,0,1,320.4,293.705a44.685,44.685,0,0,1-18.965,4.354H75.982a56.8,56.8,0,0,1-28.571-7.638l-.134-.075q-1.855-1.086-3.617-2.3a56.725,56.725,0,0,1-7.423-6.119,55.236,55.236,0,0,1-8.16-10.111,53.954,53.954,0,0,1-8.3-28.806,67.931,67.931,0,0,1-8.709-33.639,66.662,66.662,0,0,1,13.472-40.8,57.364,57.364,0,0,1,5.722-6.366,53.242,53.242,0,0,1,6.543-5.356,50.913,50.913,0,0,1,5.806-3.484c.839-.427,1.681-.83,2.537-1.2.752-.334,1.512-.644,2.282-.938q1.385-.525,2.8-.967t2.8-.772q2.032-.5,4.134-.807c1.161-.171,2.322-.29,3.484-.38.923-.07,1.855-.107,2.793-.119h.508c1.033,0,2.061.041,3.08.11.107-.215.224-.433.331-.644.406-.775.827-1.547,1.251-2.3a.072.072,0,0,1,0-.02c.073-.134.145-.264.221-.392.343-.618.7-1.231,1.065-1.838.168-.29.334-.563.505-.836a2.223,2.223,0,0,1,.119-.2q.261-.435.531-.871,1.344-2.148,2.8-4.221l.247-.354c.151-.215.29-.424.459-.639.4-.56.813-1.123,1.228-1.675.29-.395.581-.787.894-1.161q1.132-1.451,2.322-2.9t2.473-2.865c.116-.131.232-.258.354-.386l1.24-1.353h0c.061-.064.113-.122.171-.18h0c.148-.16.29-.319.45-.473.665-.705,1.347-1.4,2.032-2.084a110.658,110.658,0,0,1,11.118-9.687c.154-.122.311-.238.464-.354.737-.554,1.486-1.1,2.235-1.643a117.654,117.654,0,0,1,12.892-8.041c.308-.177.621-.343.938-.505a123.084,123.084,0,0,1,12.335-5.678c2.3-.909,4.645-1.762,7.008-2.543,1.573-.517,3.153-1.007,4.752-1.469q3.751-1.08,7.553-1.936a134.507,134.507,0,0,1,22.713-3.095q3.483-.177,7.045-.183a134.988,134.988,0,0,1,33.964,4.3,1.225,1.225,0,0,0,1.054.549h.975c.424.116.845.232,1.269.354q3.55,1.022,7,2.232l.581.209a124.952,124.952,0,0,1,16.521,7.257,119.214,119.214,0,0,1,13.832,8.546q1.019.732,2.009,1.475,1.2-.769,2.444-1.475a48.08,48.08,0,0,1,10.125-4.317A46.186,46.186,0,0,1,287.263,106a50.257,50.257,0,0,1,25.447,14.352,59.378,59.378,0,0,1,7.632,9.69c.16.25.319.5.473.758a63.864,63.864,0,0,1,4.859,9.687c.049.125.1.241.142.363a67.078,67.078,0,0,1,2.99,9.681c.035.168.075.334.11.5a69.714,69.714,0,0,1,1.428,9.687,1.878,1.878,0,0,0,.023.357q.183,2.528.186,5.109c0,1.539-.052,3.066-.148,4.581,0,.165-.023.337-.038.508-.026.438-.064.871-.1,1.312a55.092,55.092,0,0,1,6.206,5.855q1.269,1.385,2.456,2.874A61.14,61.14,0,0,1,345.258,191,67.982,67.982,0,0,1,352.989,222.836Z" transform="translate(-11.09 -87.76)" fill="#6c63ff" opacity="0.1"/><path d="M408.707,767.156c0,1.983-6.831,3.841-18.75,5.437H164.5a56.805,56.805,0,0,1-28.571-7.638l-.134-.076c3.425-1.248,9.609-2.412,18.024-3.463h0l.377-.047c3.774-.462,7.992-.9,12.6-1.315a2.869,2.869,0,0,0,.351-.032h0q5.487-.488,11.673-.914c.131,0,.258-.023.389-.029q2.386-.171,4.871-.325h0l.639-.041c12.062-.749,25.772-1.347,40.641-1.742h.017q3.124-.087,6.314-.154,3.547-.084,7.182-.148c1.849-.041,3.722-.07,5.6-.1h.044c8.474-.128,17.229-.192,26.182-.192,22.138,0,43.062.4,61.6,1.129h.052c2.851.11,5.649.232,8.378.357l2.322.11q4.619.221,9,.473h0C386.4,760.4,408.707,763.576,408.707,767.156Z" transform="translate(-99.612 -562.285)" fill="#6c63ff" opacity="0.1"/><g transform="translate(180.359 114.662)" opacity="0.2"><path d="M676.2,741.624a5.516,5.516,0,0,1-.107.932q-3.031-.482-6.1-.871v-.25a4.9,4.9,0,0,1,.726-2.462,2.7,2.7,0,0,1,4.915.151A4.9,4.9,0,0,1,676.2,741.624Z" transform="translate(-659.097 -663.523)" fill="#3f3d56"/><ellipse cx="4.067" cy="3.106" rx="4.067" ry="3.106" transform="translate(10.937 77.011) rotate(-88.19)" fill="#3f3d56"/><ellipse cx="4.067" cy="3.106" rx="4.067" ry="3.106" transform="translate(11.095 72.041) rotate(-88.19)" fill="#3f3d56"/><ellipse cx="4.067" cy="3.106" rx="4.067" ry="3.106" transform="translate(11.251 67.071) rotate(-88.19)" fill="#3f3d56"/><ellipse cx="4.067" cy="3.106" rx="4.067" ry="3.106" transform="translate(11.406 62.101) rotate(-88.19)" fill="#3f3d56"/><path d="M636.513,506.494a14.406,14.406,0,0,1-1.1-1.742l8.2-1.083-8.831-.212a14.916,14.916,0,0,1,.09-11.8l11.647,6.517L635.851,489.8A14.886,14.886,0,1,1,659.9,507.223a14.745,14.745,0,0,1,1.611,2.766l-10.767,5.167,11.417-3.434a14.9,14.9,0,0,1-2.851,13.908,14.886,14.886,0,1,1-23.386-.737,14.886,14.886,0,0,1,.581-18.4Z" transform="translate(-632.44 -482.747)" fill="#6c63ff"/><path d="M662.793,598.539a14.8,14.8,0,0,1-3.484,9.1,14.886,14.886,0,1,1-23.386-.737C634.017,604.308,662.846,596.87,662.793,598.539Z" transform="translate(-632.44 -564.754)" opacity="0.1"/></g><g transform="translate(136.235 114.662)" opacity="0.2"><path d="M524.2,741.624a5.516,5.516,0,0,1-.107.932q-3.031-.482-6.1-.871v-.25a4.9,4.9,0,0,1,.726-2.462,2.7,2.7,0,0,1,4.915.151A4.9,4.9,0,0,1,524.2,741.624Z" transform="translate(-507.097 -663.523)" fill="#3f3d56"/><ellipse cx="4.067" cy="3.106" rx="4.067" ry="3.106" transform="translate(10.933 77.012) rotate(-88.19)" fill="#3f3d56"/><ellipse cx="4.067" cy="3.106" rx="4.067" ry="3.106" transform="translate(11.092 72.042) rotate(-88.19)" fill="#3f3d56"/><ellipse cx="4.067" cy="3.106" rx="4.067" ry="3.106" transform="translate(11.247 67.072) rotate(-88.19)" fill="#3f3d56"/><ellipse cx="4.067" cy="3.106" rx="4.067" ry="3.106" transform="translate(11.403 62.102) rotate(-88.19)" fill="#3f3d56"/><path d="M484.513,506.494a14.42,14.42,0,0,1-1.1-1.742l8.2-1.083-8.831-.212a14.915,14.915,0,0,1,.09-11.8l11.647,6.517L483.851,489.8A14.886,14.886,0,1,1,507.9,507.223a14.744,14.744,0,0,1,1.611,2.766l-10.767,5.167,11.417-3.434a14.9,14.9,0,0,1-2.851,13.908,14.886,14.886,0,1,1-23.386-.737,14.886,14.886,0,0,1,.581-18.4Z" transform="translate(-480.44 -482.747)" fill="#6c63ff"/><path d="M510.793,598.539a14.8,14.8,0,0,1-3.484,9.1,14.886,14.886,0,1,1-23.386-.737C482.017,604.308,510.846,596.87,510.793,598.539Z" transform="translate(-480.44 -564.754)" opacity="0.1"/></g><g transform="translate(240.957 45.635)" opacity="0.2"><path d="M925.316,743.108a10.828,10.828,0,0,1-.212,1.765q-5.835-.932-11.754-1.666v-.479a9.435,9.435,0,0,1,1.4-4.74,5.206,5.206,0,0,1,9.472.29A9.442,9.442,0,0,1,925.316,743.108Z" transform="translate(-892.401 -592.805)" fill="#3f3d56"/><ellipse cx="7.832" cy="5.983" rx="7.832" ry="5.983" transform="translate(21.024 148.198) rotate(-88.19)" fill="#3f3d56"/><ellipse cx="7.832" cy="5.983" rx="7.832" ry="5.983" transform="translate(21.326 138.629) rotate(-88.19)" fill="#3f3d56"/><ellipse cx="7.832" cy="5.983" rx="7.832" ry="5.983" transform="translate(21.631 129.061) rotate(-88.19)" fill="#3f3d56"/><ellipse cx="7.832" cy="5.983" rx="7.832" ry="5.983" transform="translate(21.597 119.079) rotate(-88.282)" fill="#3f3d56"/><path d="M849,290.63a28.82,28.82,0,0,1-2.122-3.347l15.792-2.084-17-.409a28.71,28.71,0,0,1,.168-22.712l22.425,12.544L847.736,258.5a28.658,28.658,0,1,1,46.293,33.546,28.659,28.659,0,0,1,3.1,5.327L876.4,307.33l21.978-6.619a28.666,28.666,0,0,1-5.466,26.75,28.658,28.658,0,1,1-45.024-1.42A28.666,28.666,0,0,1,849,290.627Z" transform="translate(-841.186 -244.965)" fill="#6c63ff"/><path d="M899.631,467.693a28.547,28.547,0,0,1-6.677,17.516,28.658,28.658,0,1,1-45.025-1.42C844.232,478.794,899.733,464.479,899.631,467.693Z" transform="translate(-841.214 -402.707)" opacity="0.1"/></g><path d="M157.82,220.133l3.045-.009h4.293l5.428-88.185L224.346,42.23l-2.337-2.508V33.37l-58.14,96.49Z" transform="translate(-112.02 -23.683)" fill="#f1c0c0"/><path d="M169.43,235.653H173.4l5.428-88.185,53.759-89.709-2.337-2.508L174.8,146.123Z" transform="translate(-120.26 -39.212)" opacity="0.1"/><path d="M126.91,664.186l139.3,10.66.119.009,134.809-8.291.1-.006v-5.693l-148.543-2.726-123.929-.119h-.906l-.1.639Z" transform="translate(-90.083 -467.002)" fill="#f1c0c0"/><path d="M126.91,664.186l139.3,10.66.119.009,134.809-8.291.1-.11v-5.469h-.119l-134.911,4.505L128.765,658.02h-.02l-.244.16-.74.479Z" transform="translate(-90.083 -467.002)" opacity="0.1"/><path d="M126.91,664.576l139.3,10.66V665.88L128.5,658.57l-.74.479Z" transform="translate(-90.083 -467.392)" opacity="0.1"/><path d="M378.88,39.766l61.411,65.914-1.9,115.943,5.217.63.087.012h5.217l.624-111.606L564.531,149.07l1.939,68.393,4.2.47,1.422.16L568.8,144.326l-120.21-42.2L382.674,33.6H378.88Z" transform="translate(-268.908 -23.846)" fill="#f1c0c0"/><path d="M620.65,291.7l.473,2.134,114.994,38.412,1.939,68.393,4.2.47-3.292-70.286Z" transform="translate(-440.494 -207.022)" opacity="0.1"/><path d="M378.88,39.766l61.411,65.914-1.9,115.943,5.217.63,1.422-120.367L378.88,33.6Z" transform="translate(-268.908 -23.846)" opacity="0.1"/><path d="M621.42,433.58l42.177,8.305.015,0,73.871,14.552,3.382-1.356-.012-.238-.221-4.717L621.464,426.05Z" transform="translate(-441.04 -302.371)" fill="#f1c0c0"/><path d="M766.76,480.61l73.871,14.552,3.382-1.356-.012-.238Z" transform="translate(-544.189 -341.093)" opacity="0.1"/><path d="M776.49,350.56l1.141,62.8.589,32.22,5.193-.174,3.269-.11-1.016-93.828-2.253-.749-.494-.16Z" transform="translate(-551.095 -248.795)" fill="#f1c0c0"/><path d="M776.65,350.51v.014l1.094,62.8.589,32.22,5.193-.174V350.51Z" transform="translate(-551.208 -248.76)" opacity="0.1"/><path d="M486.421,483.8a6.616,6.616,0,0,1,.871.566,5.753,5.753,0,0,1,.871.955c1.245,1.611,2.395,3.483,2.273,5.516a2.244,2.244,0,0,1-.647,1.6,2.9,2.9,0,0,1-1.925.459,4.1,4.1,0,0,1-2.134-.377c-.633-.377-1.161-1.112-1.91-1.094a.979.979,0,0,1-.319,0c-.258-.084-.311-.424-.479-.639-.29-.386-.9-.29-1.359-.122a1.969,1.969,0,0,1-1.411.226,1.466,1.466,0,0,1-.612-.612,13.482,13.482,0,0,1-1.51-5.858c-.125-1.231-1.077-5.428,1.55-4.473a21.779,21.779,0,0,1,3.3,1.867Z" transform="translate(-342.374 -365.992)" fill="#3f3d56"/><path d="M497.1,491.135a1.3,1.3,0,0,0,1.594-.064,2.4,2.4,0,0,0,.775-1.5c.29-.09.438.29.624.523.325.395.987.389,1.283.81.206.29.16.694.3,1.022.189.424.656.644.975.987a3.362,3.362,0,0,1,.639,1.274l.476,1.428a7.06,7.06,0,0,1,.435,1.849,2.4,2.4,0,0,1-.552,1.768,4.686,4.686,0,0,1-3.53.633,2.6,2.6,0,0,1-1.565-1.916,24.2,24.2,0,0,1-.322-2.56,10.035,10.035,0,0,0-.726-2.433c-.255-.6-.958-1.5-.946-2.145C496.779,490.806,496.93,491,497.1,491.135Z" transform="translate(-355.652 -372.916)" fill="#3f3d56"/><path d="M492.319,475.722a4.793,4.793,0,0,1-.235-1.274,5.548,5.548,0,0,1,.8-2.468l-3.318.45a1.47,1.47,0,0,0-1.074.47,1.161,1.161,0,0,0,0,1.071,5.475,5.475,0,0,1,.395,1.036,5.177,5.177,0,0,0,.107.932,1.974,1.974,0,0,0,.427.6,20.127,20.127,0,0,1,2.369,3.518c-.02-.035,2-1.6,1.919-2.11-.046-.29-.63-.639-.816-.917A4.671,4.671,0,0,1,492.319,475.722Z" transform="translate(-349.825 -360.444)" fill="#be6f72"/><path d="M441.568,358.04V360.9L392.6,370.45l-2.54,1.539H381.3v-1.611l48.107-11.623Z" transform="translate(-270.626 -254.104)" fill="#f1c0c0"/><path d="M441.568,367.89,392.6,377.441l-2.54,1.539H381.3l48.464-10.372Z" transform="translate(-270.626 -261.094)" opacity="0.1"/><path d="M444.643,722.05a3.794,3.794,0,0,0-4.616-.981,1.215,1.215,0,0,0-.424.331c-.29.406-.1.967-.078,1.469.067,1.225-.909,2.221-1.785,3.077a4.221,4.221,0,0,0-1.161,1.573,1.474,1.474,0,0,0,.514,1.742,2.139,2.139,0,0,0,.8.221,8.582,8.582,0,0,0,2.816.078A3.051,3.051,0,0,0,442.939,728a1.64,1.64,0,0,1,.374-.618c.511-.4,1.295.07,1.875-.218.479-.238.5-.613.505-1.106A6.4,6.4,0,0,0,444.643,722.05Z" transform="translate(-313.013 -536.942)" fill="#6c63ff"/><path d="M473.216,716.762a9.558,9.558,0,0,1,.453,2.97,2.866,2.866,0,0,1-.27,1.692,2.313,2.313,0,0,1-1.512.871,3.468,3.468,0,0,1-3.394-.946,3.581,3.581,0,0,1-.612-2.694c.093-.781.29-1.7-.27-2.25-.145-.148-.334-.253-.467-.412a1.383,1.383,0,0,1-.087-1.324,5.748,5.748,0,0,0,.456-1.309,16.906,16.906,0,0,1,4.291.328c.491.241.415.644.563,1.132C472.571,715.5,472.966,716.111,473.216,716.762Z" transform="translate(-334.618 -531.706)" fill="#6c63ff"/><path d="M444.986,579.386a3.225,3.225,0,0,1,1.182,2.378c.328,2.482-.247,4.99-.29,7.5-.041,3.51.975,7.083.107,10.482-.52,2.032-.078,4.354-.566,6.407-.145.61-.412,1.184-.552,1.794a7.827,7.827,0,0,0,.424,3.994,4.126,4.126,0,0,1,.247,1.083,3.9,3.9,0,0,1-.424,1.637l-1.742,4.119c-.195.461-.961.537-1.451.6a3.631,3.631,0,0,1-2.688-.383,3.439,3.439,0,0,1-1.025-2.424,37.158,37.158,0,0,1-.29-5.176,4.265,4.265,0,0,0-.119-1.344,11.783,11.783,0,0,1-.607-1.451,5.83,5.83,0,0,1,.351-2.032,6.121,6.121,0,0,0-.029-1.884c-.113-.929-.244-1.858-.392-2.781a12.325,12.325,0,0,1,.29-3.861,10.645,10.645,0,0,0-.29-3.664,10.1,10.1,0,0,1-.363,2.9c-.154.462-.374.9-.508,1.373-.6,2.11.673,4.325.494,6.511a16.126,16.126,0,0,0-.372,3.039,10.256,10.256,0,0,0,.656,2.116,2.743,2.743,0,0,1,0,2.163c-.943,1.782-.238,4.206.607,6.035a8.146,8.146,0,0,1,.447,1,12,12,0,0,1,.107,2.569,1.62,1.62,0,0,1-1.362-.409c-.128-.134-.232-.29-.357-.43a3.543,3.543,0,0,0-1.213-.758,1.593,1.593,0,0,0-.871-.2,1.742,1.742,0,0,0-.827.514,8.12,8.12,0,0,1-.912.694,1.079,1.079,0,0,1-.464.206.409.409,0,0,1-.427-.218.516.516,0,0,1-.032-.151,22.961,22.961,0,0,1-.171-2.642c0-1.518-1.817-2.563-2.047-4.064-.183-1.211.157-2.444.044-3.664a17.819,17.819,0,0,1-.218-1.869c0-.406.093-.8.125-1.208a9.036,9.036,0,0,0-.02-1.344l-.09-1.4a12.116,12.116,0,0,0-.729-4.064,13.808,13.808,0,0,1-1.132-4.668c-.058-1.016-.02-2.032-.136-3.051a15.021,15.021,0,0,1-.27-2.758c.055-.714.29-1.405.345-2.119a10.83,10.83,0,0,0-.819-4.023,5.955,5.955,0,0,1-.174-4.041,1.327,1.327,0,0,1,.372-.54,1.62,1.62,0,0,1,.685-.255,53.155,53.155,0,0,1,15.159-.967,5.033,5.033,0,0,1,2.337.729Z" transform="translate(-305.671 -436.034)" fill="#3f3d56"/><circle cx="4.65" cy="4.65" r="4.65" transform="translate(118.184 103.219)" fill="#be6f72"/><path d="M426.794,468.218a1.66,1.66,0,0,1,0,.81,1.834,1.834,0,0,1-.3.511,13.123,13.123,0,0,1-1.489,1.62,2.7,2.7,0,0,0,1.391,1.373,8.075,8.075,0,0,0,1.919.549,2.011,2.011,0,0,0,1.881-.325l2.584-1.547a5.159,5.159,0,0,0,1.074-.775,2.645,2.645,0,0,0,.749-1.817.5.5,0,0,0-.093-.342.61.61,0,0,0-.354-.148,3.148,3.148,0,0,1-2.032-1.774,9.393,9.393,0,0,1-.705-2.691l-2.755,1.451c-.409.218-.816.435-1.24.624-.27.122-.816.224-1.007.47C426.045,466.662,426.7,467.669,426.794,468.218Z" transform="translate(-304.859 -354.539)" fill="#be6f72"/><path d="M422.7,479.336a3.062,3.062,0,0,0-.891,1.2,3.139,3.139,0,0,0,.163,1.768,52.748,52.748,0,0,1,1.742,7.487c.244,1.742.334,3.51.453,5.272.244,3.594.6,9.324,1.071,12.895a34.237,34.237,0,0,0,5.167-.615c3.228-.343,6.552.441,9.713-.29-.766-3.028-1.533-8.2-2.3-11.223a21.418,21.418,0,0,1-.7-3.643c-.067-.885-.026-1.774-.014-2.665.026-1.742-.07-3.483-.165-5.225a33.147,33.147,0,0,0-.7-6.053,1.126,1.126,0,0,0-.337-.665,1.363,1.363,0,0,0-1.013-.09,4.407,4.407,0,0,1-3.013-.714c-.383-.261-.9-.581-1.254-.29a1.249,1.249,0,0,0-.29.618,3.092,3.092,0,0,1-1.817,1.791,9.094,9.094,0,0,1-2.572.528,1.263,1.263,0,0,1-.8-.09c-.412-.253-.441-1.161-.961-1.222C423.72,478.062,423.006,479.043,422.7,479.336Z" transform="translate(-302.539 -363.562)" fill="#3f3d56"/><path d="M416.971,486.9c-1.071-1.025-1.541-2.511-2.322-3.774a8.4,8.4,0,0,0-2.006-2.206,5.981,5.981,0,0,1-1.092-.926c-.276-.34-.485-.792-.9-.923a1.092,1.092,0,0,0-.978.27,9.624,9.624,0,0,0-.726.772c-1.231,1.274-3.394,1.451-4.369,2.926a2.4,2.4,0,0,0-.52,1.089,8.436,8.436,0,0,0,1.55,6.067,2.061,2.061,0,0,0,1.074.871,3.362,3.362,0,0,0,.209,1.6,42.684,42.684,0,0,0,1.977,5.385,13.023,13.023,0,0,0-.389,2.087c-.2,1.774-.015,3.573-.206,5.35-.157,1.451-.581,2.865-.6,4.32,0,.232.02.508.221.627a.667.667,0,0,0,.345.073l3.571.107a28.976,28.976,0,0,0,6.206-.261,2.584,2.584,0,0,0,.781-.247,2.623,2.623,0,0,0,1.031-2.032A17.708,17.708,0,0,0,420,505.03c.433,1.367.946,2.781,2.253,3.373a5.055,5.055,0,0,0,2.238.27,42.15,42.15,0,0,0,4.874-.5.642.642,0,0,0,.711-.746l.017-1.585c.035-3.219-.764-6.3-1.074-9.5a20.655,20.655,0,0,0-.337-3.022c-.1-.415-.25-.821-.34-1.24a8.867,8.867,0,0,1-.145-1.24l-.226-3.193c-.107-1.478-.261-2.9-.374-4.378a21.191,21.191,0,0,0-.621-4.256c-.253-.871-.778-1.858-1.687-1.965a3.478,3.478,0,0,0-1.417.3,5.724,5.724,0,0,1-3.483-.014,4.909,4.909,0,0,0-1.086-.29,1.066,1.066,0,0,0-.993.412,1.489,1.489,0,0,0-.154.732A38.721,38.721,0,0,1,416.971,486.9Z" transform="translate(-289.944 -364.032)" fill="#6c63ff"/><path d="M412.933,500.867a17.625,17.625,0,0,0-4.436-3.745,3.543,3.543,0,0,0-2.2-.488,1.65,1.65,0,0,0-1.417,1.55,10.034,10.034,0,0,0,.4,1.356,14.24,14.24,0,0,0,.116,1.585,2.683,2.683,0,0,0,.581.891l2.055,2.436a13.232,13.232,0,0,0,2.862,2.749,4.3,4.3,0,0,0,3.8.531,4.674,4.674,0,0,0,2.084-1.913c.511-.813.871-1.7,1.35-2.54a12.612,12.612,0,0,1,2.9-3.521,3.225,3.225,0,0,1-1.742-.871,2.876,2.876,0,0,1-.276-.5l-.47-1.016a1.161,1.161,0,0,0-.871.328,7.3,7.3,0,0,1-.647.659c-.409.308-.964.392-1.335.743a3.535,3.535,0,0,0-.389.488,3.257,3.257,0,0,1-2.369,1.277Z" transform="translate(-290.577 -377.916)" fill="#3f3d56"/><path d="M453.346,470.215c1.007-1.838.961-4.041,1.248-6.116a2.792,2.792,0,0,1,.554-1.518,2.893,2.893,0,0,1,2.482-.581c.258.029.581.151.566.409a.523.523,0,0,1-.131.247,6.906,6.906,0,0,0-1.434,3.809c.456.316,1.161-.334,1.6,0,.29.244.157.726-.017,1.074q-.607,1.211-1.251,2.4a7.717,7.717,0,0,1-1.327,1.913c-.369.354-.8.633-1.176.981-.871.816-1.4,1.968-2.3,2.764a.47.47,0,0,1-.29.148.488.488,0,0,1-.3-.136,4.4,4.4,0,0,1-1.1-1.327c-.343-.633-.29-.819.25-1.266A9.6,9.6,0,0,0,453.346,470.215Z" transform="translate(-322.784 -353.334)" fill="#be6f72"/><path d="M413.52,497.509c.174.107.389.229.581.139a.6.6,0,0,0,.195-.189,6.831,6.831,0,0,0,.824-1.434.551.551,0,0,0,.061-.232c0-.186-.165-.322-.319-.43a11.832,11.832,0,0,0-2.639-1.254,5.445,5.445,0,0,0-2.38-.47,2.27,2.27,0,0,0-1.588.807c-.581.746.392.972,1,1.242A38.712,38.712,0,0,1,413.52,497.509Z" transform="translate(-292.848 -375.807)" fill="#6c63ff"/><path d="M423.669,517.561a.427.427,0,0,0,.122.366c.084-.412-.026-.848.061-1.263.128-.624.734-1.094.787-1.721C423.526,514.725,423.677,516.888,423.669,517.561Z" transform="translate(-303.911 -390.924)" opacity="0.1"/><path d="M559.18,358.04V360.9l-11.8.717-.357-2.862Z" transform="translate(-388.238 -254.104)" opacity="0.2"/><path d="M416.392,444.938c.737-.6.311-1.861.81-2.668a2.593,2.593,0,0,1,1.263-.871,5.745,5.745,0,0,1,1.843-.511,2.139,2.139,0,0,1,1.742.642c.189.215.316.476.493.7a1.887,1.887,0,0,0,1.829.633c.386-.087.787-.38.761-.775a1.1,1.1,0,0,0-.348-.621l-.83-.92a6.589,6.589,0,0,0-3.376-2.415,5.792,5.792,0,0,0-2.88.386c-.374.125-.8.311-.9.691-.07.261.035.546-.026.81-.119.525-.793.7-1.106,1.144s-.218.964-.308,1.451a12.679,12.679,0,0,0-.383,1.469c-.02.3.134.871.476.981S416.18,444.576,416.392,444.938Z" transform="translate(-297.743 -336.378)" fill="#3f3d56"/><path d="M424.247,435.843a8.709,8.709,0,0,0-1.544-3.53,6.186,6.186,0,0,0-2.749-2.183,3.936,3.936,0,0,0-3.423.27,4.969,4.969,0,0,0-1.71,2.157,5.767,5.767,0,0,0-.157,5.156c.348-.424.946-.232,1.475-.386a15.375,15.375,0,0,0,1.852-.906C419.893,435.582,422.215,436.261,424.247,435.843Z" transform="translate(-297.14 -330.551)" fill="#fed253"/><path d="M417.321,446.32a1.774,1.774,0,0,1,.261-1.5.188.188,0,0,1,.154-.07.2.2,0,0,1,.119.1,6.5,6.5,0,0,1,.546,1.068,1.109,1.109,0,0,0-1.161.45" transform="translate(-299.352 -341.118)" opacity="0.1"/><path d="M440.557,441.552l-.1-1.036a.473.473,0,0,1,.02-.255.328.328,0,0,1,.424-.116.871.871,0,0,1,.34.34,6.1,6.1,0,0,1,.6,1.181,3.513,3.513,0,0,0-1.414.017" transform="translate(-315.803 -337.825)" opacity="0.1"/><path d="M408.14,502.21v2.369l-2,.134H395.62v-2.5Z" transform="translate(-280.789 -356.422)" opacity="0.1"/><path d="M326.822,401.652v2.5H314.3L281.04,362.488V360.52h6.973Z" transform="translate(-199.47 -255.864)" fill="#f1c0c0"/><path d="M326.822,401.652v2.5H314.3L281.04,362.488V360.52h6.973Z" transform="translate(-199.47 -255.864)" opacity="0.1"/><path d="M326.822,401.652v2.5H314.3L281.04,362.488V360.52l33.442,41.132Z" transform="translate(-199.47 -255.864)" opacity="0.1"/><path d="M298.671,729.028a.871.871,0,0,1-.761,1.025,5.173,5.173,0,0,0-2.235,1.161,1.6,1.6,0,0,0,0,2.267,2.2,2.2,0,0,0,1.161.316,7.868,7.868,0,0,0,3.878-.485c.853-.395,1.658-1.068,2.6-1.007.485.029,1,.255,1.434.035s.554-.836.557-1.35a10,10,0,0,0-.479-3.161,12.694,12.694,0,0,0-2.11-.29l-2.238-.29c-.424-.055-1.338-.375-1.672-.02S298.671,728.607,298.671,729.028Z" transform="translate(-212.741 -541.478)" fill="#6c63ff"/><path d="M352.97,698.331a7.007,7.007,0,0,0,.459,1.521,3.542,3.542,0,0,0,1.469,2.012,2.622,2.622,0,0,0,2.241-.107,1.847,1.847,0,0,0,.746-.566,2.247,2.247,0,0,0,.29-1.3,7.12,7.12,0,0,0-.581-3.283c-.441-.871-1.211-1.62-1.222-2.584l-2.645.511a.755.755,0,0,0-.389.154.67.67,0,0,0-.168.316A8.641,8.641,0,0,0,352.97,698.331Z" transform="translate(-253.684 -518.027)" fill="#6c63ff"/><path d="M244.249,602.149a4.321,4.321,0,0,0,.424,2.743,2.123,2.123,0,0,0,2.4,1.019.351.351,0,0,0,.218-.165.409.409,0,0,0-.038-.29,4.285,4.285,0,0,1,.09-3.228c.058-.134.183-.29.319-.238a.291.291,0,0,1,.131.134,1.518,1.518,0,0,1,.2.8,2.977,2.977,0,0,0-.023.769c.055.25.322.485.554.377a.581.581,0,0,0,.264-.374,12.376,12.376,0,0,0,.058-5.878.308.308,0,0,0-.345-.322c-1.37-.136-2.119-.464-2.9.81A7.958,7.958,0,0,0,244.249,602.149Z" transform="translate(-176.544 -449.423)" fill="#6c63ff"/><path d="M297.492,595.422a17.8,17.8,0,0,0-.6,8.366l.3,2.514c.1.848.206,1.692.354,2.531a6.723,6.723,0,0,1,.154,1.315,7.042,7.042,0,0,1-.206,1.292,15.1,15.1,0,0,0-.3,2.7c-.032,1.451.148,2.9.261,4.354a48.494,48.494,0,0,1-.1,8.686,3.257,3.257,0,0,0,.476,2.238,2.881,2.881,0,0,1,.421.691c.218.665-.29,1.33-.421,2.012a2.032,2.032,0,0,0,1.69,2.322c2.322.276,4.709.151,6.8,1.213.221-.644-.261-1.376-.041-2.032.139-.406.523-.671.784-1.013a2.95,2.95,0,0,0,.5-1.771,6.471,6.471,0,0,0-.43-2.4,5.192,5.192,0,0,1-.581-1.954,2.468,2.468,0,0,0-.017-1,1.565,1.565,0,0,0-.374-.467,5.9,5.9,0,0,1-1.518-3.44,15.845,15.845,0,0,1,.122-3.814,6.481,6.481,0,0,1,1.1-3.408,21.868,21.868,0,0,1,.613-8.491c.075-.255.194-.552.456-.612a.651.651,0,0,1,.557.221,3.806,3.806,0,0,1,.871,1.637,3.57,3.57,0,0,1,.273,1.983c-.07.29-.209.546-.29.824a2.444,2.444,0,0,0,.087,1.7,1.637,1.637,0,0,1,.209.642,1.776,1.776,0,0,1-.174.557,2.566,2.566,0,0,0,.241,2.076,7.515,7.515,0,0,0,1.356,1.663,6.1,6.1,0,0,0,.189,3.356.424.424,0,0,1,.038.322c-.052.11-.186.151-.29.229-.29.238-.11.688.084,1a22.9,22.9,0,0,0,1.762,2.444c.581.694.528,2.032,1.393,2.282a2.611,2.611,0,0,0,1.1,0,2.892,2.892,0,0,0,2.224-1.132,3.047,3.047,0,0,1,.508-.92c.267-.232.612-.273.761-.552s-.017-.644.032-.967.331-.581.421-.92c.215-.784-.7-1.428-.824-2.229-.18-1.161,1.283-2.032,1.222-3.193-.128-2.523-.209-5.057-.34-7.58a54.649,54.649,0,0,1-.07-6.79,9.549,9.549,0,0,0-.226-4.192,5.615,5.615,0,0,0-4.775-3.08,23.512,23.512,0,0,0-5.925.581,37.448,37.448,0,0,1-9.855.206Z" transform="translate(-213.768 -447.46)" fill="#3f3d56"/><circle cx="4.65" cy="4.65" r="4.65" transform="translate(84.966 110.915)" fill="#fbbebe"/><path d="M308.6,497.716a1.983,1.983,0,0,1-1.9,1.2,2.338,2.338,0,0,0,.7,1.948,8.267,8.267,0,0,0,7.913,2.714,3.905,3.905,0,0,0,1.559-.65,3.457,3.457,0,0,0,1.19-2.061,10.248,10.248,0,0,0,.113-2.424.627.627,0,0,0-.128-.447.639.639,0,0,0-.406-.134,7.048,7.048,0,0,1-2.868-.607,2.044,2.044,0,0,1-1.06-2.465,10.407,10.407,0,0,1-1.986.235c-.7.1-1.4.209-2.1.337a3.81,3.81,0,0,0-.984.186c-.421.218-.264.11-.165.505A2.4,2.4,0,0,1,308.6,497.716Z" transform="translate(-220.876 -376.632)" fill="#fbbebe"/><path d="M270.78,506.335a7.7,7.7,0,0,1-1.861-.206,2.612,2.612,0,0,1-1.527-1.019c-.215-.325-.354-.734-.7-.917-.56-.29-1.2.2-1.646.65a5.979,5.979,0,0,1-1.4,1.126c-.621.328-1.347.444-1.933.83a4.86,4.86,0,0,0-1.161,1.254l-4.113,5.6c-1.652,2.253-3.089,4.671-4.56,7.048a49.843,49.843,0,0,0-2.9,6.648.743.743,0,0,0-.09.447c.035.151.218.273.345.186-.433.43-.052,1.161-.154,1.765a2.165,2.165,0,0,1-.691,1.083,5.459,5.459,0,0,1,1.916.09,5.874,5.874,0,0,1,1.811.871c.351-.055.319-.679.581-.911.157-.136.389-.119.6-.16.775-.151,1.083-1.083,1.678-1.608.5-.438,1.2-.581,1.724-.993.853-.671,1.036-1.864,1.483-2.854.38-.839.978-1.57,1.312-2.43a10.46,10.46,0,0,1,.633-1.675,4.794,4.794,0,0,1,2.322-1.669,3.845,3.845,0,0,1,1.768-.473,16.418,16.418,0,0,0,.09,4c.1.464.244.917.366,1.379a25.965,25.965,0,0,1,.711,6.386,19.421,19.421,0,0,1,4.064-.488c1.077-.032,2.151.107,3.228.087,1.277-.023,2.54-.27,3.817-.357a7.131,7.131,0,0,1,3.742.581,35.549,35.549,0,0,1,.154-5.516l.308-2.885a17.731,17.731,0,0,1,.386-2.491c.168-.662.412-1.3.6-1.959a22.43,22.43,0,0,0,.409-7.22,9.1,9.1,0,0,0-1.106-3.571,9.662,9.662,0,0,0-.7-1.184,6.86,6.86,0,0,0-6-2.816,1.215,1.215,0,0,0-.43.093,1.432,1.432,0,0,0-.549.653,7.112,7.112,0,0,1-2.528,2.624Z" transform="translate(-179.518 -382.423)" fill="#3f3d56"/><path d="M302.28,473.682c.131-.29.482-.4.7-.63.412-.441.226-1.147.29-1.742a2.5,2.5,0,0,1,1.655-1.91,5.347,5.347,0,0,1,2.613-.166,2.529,2.529,0,0,1,1.179.392c.151.11.29.253.433.354a1.161,1.161,0,0,0,1.579-.369c-1.028-1.237-2.166-2.543-3.727-2.923a7.651,7.651,0,0,0-1.629-.154,5.289,5.289,0,0,0-2.137.25,3.562,3.562,0,0,0-1.875,2.166,10.53,10.53,0,0,0-.456,2.9,10.936,10.936,0,0,0,0,1.974,5.457,5.457,0,0,0,.97,2.488.752.752,0,0,0,.29.27C303.485,477.166,302.172,473.923,302.28,473.682Z" transform="translate(-216.753 -356.575)" fill="#3f3d56"/><path d="M308.209,461.6a5.7,5.7,0,0,0-2.171-3.405,8.006,8.006,0,0,0-2.917-1.756,3.9,3.9,0,0,0-3.292.4,5.058,5.058,0,0,0-1.6,2.2,6.935,6.935,0,0,0-.7,3.193A3.443,3.443,0,0,0,299.085,465a2.931,2.931,0,0,1,1.51-.972,73.9,73.9,0,0,1,7.614-2.427Z" transform="translate(-214.389 -349.284)" fill="#fed253"/><path d="M303.228,472.72c.093,0,.154.1.2.174a7.359,7.359,0,0,1,.607,1.161c-.34.073-.923.154-1.092-.145C302.854,473.759,302.961,472.705,303.228,472.72Z" transform="translate(-218.213 -360.969)" opacity="0.1"/><path d="M326.42,466.956c-.07.067-.151-.07-.151-.168v-1.126a.165.165,0,0,1,.02-.09.137.137,0,0,1,.1-.046c.235-.026.43.174.581.366a6.13,6.13,0,0,1,.6.99l-1.228-.038" transform="translate(-234.789 -355.861)" opacity="0.1"/><path d="M356.844,516.467a7.6,7.6,0,0,1,.853-.7,12.872,12.872,0,0,1,2.679-1.092,3.536,3.536,0,0,0,2.171-1.8,4.268,4.268,0,0,0,.168-1.742,1.741,1.741,0,0,0-.128-.717,1.425,1.425,0,0,0-.459-.5,6.635,6.635,0,0,0-4.389-.885,27.511,27.511,0,0,0-9.7,2.421.842.842,0,0,0-.406.29.83.83,0,0,0-.078.4,6.676,6.676,0,0,0,.328,2.528c.4,1.033,1.225,1.867,1.57,2.92.157.473.209.975.345,1.451a2.032,2.032,0,0,0,.816,1.213c1.147.685,2.229-.235,3.025-.949Z" transform="translate(-249.888 -386.721)" fill="#3f3d56"/><path d="M302.418,514.68l-1.472-3.211a11.232,11.232,0,0,1-.557-1.373c-.168-.56-.25-1.141-.406-1.7-.517-1.875-1.82-3.437-2.456-5.275a1,1,0,0,0-.238-.444.775.775,0,0,0-.647-.116,10.11,10.11,0,0,0-2.395,1.213c-.377.174-.784.29-1.161.491a1.452,1.452,0,0,0-.778.926,2.264,2.264,0,0,0,.316,1.3,14.722,14.722,0,0,1,1,5.725,6.087,6.087,0,0,1-.816,3.774c-1.489,2.032-.537,5.016.02,7.475.067.29.145.6.192.912a8.377,8.377,0,0,1,.067,1.161,9.087,9.087,0,0,1-.618,3.829,4.284,4.284,0,0,0,1.742.494q2.528.322,5.077.453a5.534,5.534,0,0,0,1.594-.081,2.9,2.9,0,0,0,2.145-2.845,3.589,3.589,0,0,0,.848,2.235,3.377,3.377,0,0,0,2.227.685,41.4,41.4,0,0,0,6.706-.189,1.161,1.161,0,0,0,.412-.1c.43-.215.453-.807.418-1.283-.064-.891-.131-1.782-.238-2.668a10.92,10.92,0,0,1-.139-1.707,9.817,9.817,0,0,1,.29-1.742,19.753,19.753,0,0,0,.566-5.516,9.312,9.312,0,0,1-.055-1.361c.075-1.025.615-2,.514-3.019a49.423,49.423,0,0,0-1.361-8.961,2.323,2.323,0,0,0-.793-1.367c-.581-.389-1.4-.186-2.061-.432a5.159,5.159,0,0,1-.885-.525,4.064,4.064,0,0,0-2-.615,1.7,1.7,0,0,0-1.451.528,2.108,2.108,0,0,0-.29.793c-.421,1.771-.914,3.521-1.408,5.272l-.473,1.678-1.269,4.505C302.461,514.079,302.546,514.227,302.418,514.68Z" transform="translate(-210.479 -380.914)" fill="#6c63ff"/><path d="M328.782,400.25l28.08,29.508v2.5h-12.52l-21.1-27.54" transform="translate(-229.42 -284.061)" fill="#f1c0c0"/><path d="M328.782,400.25l28.08,29.508v2.5h-12.52l-21.1-27.54" transform="translate(-229.42 -284.061)" opacity="0.1"/><path d="M323.687,414.31l.09.032,20.744,25.395h12.34v2.5h-12.52l-21.1-27.54Z" transform="translate(-229.42 -294.039)" opacity="0.1"/><path d="M340.87,501.244c-1.016.444-2.145,1.013-2.45,2.081a1.2,1.2,0,0,0-.038.581,1.184,1.184,0,0,0,1.065.816,3.485,3.485,0,0,0,1.4-.255l5.995-1.98c.163-.052.348-.131.389-.29a.5.5,0,0,0-.058-.29c-.186-.453-.369-1.379-.758-1.7-.319-.255-.952-.165-1.338-.16A10.853,10.853,0,0,0,340.87,501.244Z" transform="translate(-243.372 -380.352)" fill="#6c63ff"/><path d="M362.28,501.241a9.641,9.641,0,0,1,2.975.462,5.3,5.3,0,0,1,2.465,1.684,1.847,1.847,0,0,1,.389.761c.058.29,1,.464.8.662.636-.1.485.2,1.129.192a2.134,2.134,0,0,0,1.727-.685,2.244,2.244,0,0,0,.34-1.42,2.418,2.418,0,0,0-.192-1,2.965,2.965,0,0,0-1.573-1.219l-5.185-2.372a3.442,3.442,0,0,0-.958-.34,3.583,3.583,0,0,0-.845.02l-2.348.27a3.521,3.521,0,0,1,1.605,3.1" transform="translate(-259.438 -378.872)" fill="#3f3d56"/></g></svg>